<?xml version="1.0" encoding="UTF-8"?>
<svg version="1.1" xmlns="http://www.w3.org/2000/svg" width="600" height="600">
<path d="M0 0 C198 0 396 0 600 0 C600 198 600 396 600 600 C402 600 204 600 0 600 C0 402 0 204 0 0 Z " fill="#FEFEFE" transform="translate(0,0)"/>
<path d="M0 0 C0 53.46 0 106.92 0 162 C4.95 160.68 9.9 159.36 15 158 C17.70050187 157.3814235 20.40721579 156.78758369 23.125 156.25 C24.32382812 156.00765625 25.52265625 155.7653125 26.7578125 155.515625 C30 155 30 155 35 155 C35 119.03 35 83.06 35 46 C35.66 46 36.32 46 37 46 C37.23332031 45.44441406 37.46664062 44.88882813 37.70703125 44.31640625 C43.99297363 33.05488409 57.55602673 24.96264884 68 18 C68.99 18 69.98 18 71 18 C71 60.24 71 102.48 71 146 C81.89 143.69 92.78 141.38 104 139 C114.3125 136.9375 114.3125 136.9375 118.875 136.04296875 C122.99069162 135.22100347 127.08896072 134.32927435 131.1875 133.42578125 C133.07795044 133.01114624 133.07795044 133.01114624 135.0065918 132.58813477 C137.48862048 132.04154393 139.96933273 131.48893005 142.44848633 130.92944336 C148.07026511 129.69356808 153.23796799 128.62988408 159 129 C158.35724484 134.46647956 157.52673675 139.85509187 156.49414062 145.26171875 C156.17027349 147.0564291 155.88864417 148.85939016 155.65429688 150.66796875 C154.81316238 156.81790294 153.6651263 162.60490386 149 167 C141.64171993 170.44183908 133.32931374 171.15589702 125.3379364 172.13525391 C118.30305571 173.01500219 111.4777793 174.57091454 104.58862305 176.21813965 C93.77225453 178.80355162 82.94199983 180.94837503 72 183 C72 194.55 72 206.1 72 218 C78.55751136 216.66885363 85.11480313 215.33669731 91.67163086 214.00219727 C93.89091943 213.55079758 96.11031635 213.09993022 98.32983398 212.6496582 C110.10721682 210.2600056 121.8764734 207.83938058 133.62109375 205.29296875 C135.01558495 204.99124504 135.01558495 204.99124504 136.43824768 204.6834259 C140.44496895 203.80844394 144.4303102 202.90034827 148.39868164 201.86450195 C152.17551265 200.95786792 155.14862698 200.83952612 159 201 C157.99423768 208.33614871 156.93748084 215.64120079 154.89306641 222.77026367 C153.95646923 225.98670748 153.95646923 225.98670748 153.37646484 229.27368164 C152.38794375 233.12563203 151.35967428 235.77895839 149 239 C143.19940461 241.73499778 137.24128453 242.51981917 130.9375 243.4375 C129.15104061 243.74264293 127.36563035 244.05398891 125.58129883 244.37133789 C122.02077454 244.99932376 118.45750189 245.60082215 114.88867188 246.1796875 C108.60570154 247.21281978 102.40051649 248.54975851 96.1875 249.9375 C94.00292795 250.41035253 91.81801737 250.8816431 89.6328125 251.3515625 C88.46266602 251.60454102 87.29251953 251.85751953 86.08691406 252.11816406 C78.20684161 253.82010107 70.32339183 255.50638404 62.44058228 257.19558716 C59.60962679 257.80239844 56.77880168 258.40981475 53.94799805 259.01733398 C52.19580461 259.39308428 50.44360752 259.76881748 48.69140625 260.14453125 C47.88746429 260.31717499 47.08352234 260.48981873 46.25521851 260.66769409 C45.50398712 260.82867584 44.75275574 260.98965759 43.97875977 261.15551758 C43.00290672 261.36486687 43.00290672 261.36486687 42.00733948 261.57844543 C39.67485944 262.06828167 37.3370763 262.53258474 35 263 C35 239.24 35 215.48 35 191 C24.44 193.31 13.88 195.62 3 198 C2.01 198 1.02 198 0 198 C0.0314209 199.31081543 0.0628418 200.62163086 0.09521484 201.97216797 C0.20448566 206.87344414 0.2729395 211.77461449 0.32958984 216.67675781 C0.3596117 218.79120031 0.40044296 220.90551985 0.45263672 223.01953125 C0.97702841 244.81777397 0.97702841 244.81777397 -6 253 C-6.93559886 254.44674899 -7.8513929 255.90651423 -8.74609375 257.37890625 C-26.51748986 285.14955337 -26.51748986 285.14955337 -41 289 C-43.20208108 289.46552057 -45.40842715 289.91102812 -47.6171875 290.34375 C-48.96668272 290.61010542 -50.3161271 290.87671852 -51.66552734 291.14355469 C-52.37392761 291.28321655 -53.08232788 291.42287842 -53.81219482 291.56677246 C-60.71367679 292.93339874 -67.60668589 294.34286037 -74.5 295.75 C-75.33929047 295.92130432 -76.17858093 296.09260864 -77.04330444 296.269104 C-91.27731541 299.18080122 -105.45486918 302.29668826 -119.61328125 305.5546875 C-123.58471424 306.45992766 -127.55685527 307.3568263 -131.54296875 308.1953125 C-132.28957764 308.35273926 -133.03618652 308.51016602 -133.80541992 308.67236328 C-136.23053919 309.03441802 -138.55152627 309.05543308 -141 309 C-140.66110085 300.84947539 -139.290817 292.95679584 -136.70678711 285.20166016 C-135.92880306 282.89006458 -135.92880306 282.89006458 -135.32641602 280.01318359 C-134.28662684 276.43752922 -133.27191471 273.96510962 -131 271 C-125.68506012 268.39809499 -120.23468669 267.4892022 -114.4375 266.5 C-112.82302091 266.18452965 -111.20948727 265.86418313 -109.59692383 265.5390625 C-105.72592609 264.76887557 -101.84757315 264.05296294 -97.96264648 263.35693359 C-94.73811029 262.77050843 -91.53119633 262.10387821 -88.32226562 261.43847656 C-86.12944683 260.988076 -83.93268223 260.56337639 -81.734375 260.140625 C-76.62892842 259.143009 -71.54144644 258.06521237 -66.453125 256.984375 C-65.59507767 256.80233521 -64.73703033 256.62029541 -63.85298157 256.43273926 C-60.3414699 255.68725202 -56.83010447 254.94114825 -53.31991577 254.18945312 C-50.84793324 253.66018193 -48.37520605 253.13451784 -45.90234375 252.609375 C-44.77406158 252.36595367 -44.77406158 252.36595367 -43.62298584 252.11761475 C-40.68750609 251.49657771 -38.01010385 251 -35 251 C-35 236.15 -35 221.3 -35 206 C-67.90650786 212.65242516 -67.90650786 212.65242516 -100.70898438 219.79125977 C-108.43660086 221.52066819 -116.15787954 222.89902268 -124 224 C-124.295012 215.6304003 -122.19350086 208.02588891 -120 200 C-119.82339844 199.33935547 -119.64679688 198.67871094 -119.46484375 197.99804688 C-118.96092876 196.19328466 -118.38822664 194.40815333 -117.8125 192.625 C-117.48894531 191.60664063 -117.16539062 190.58828125 -116.83203125 189.5390625 C-111.65564357 182.36496444 -96.82505362 181.95900128 -88.4375 180.25 C-85.33146225 179.6121144 -82.22619112 178.97057076 -79.12109375 178.328125 C-78.35858779 178.17063404 -77.59608183 178.01314308 -76.81046963 177.85087967 C-68.29505333 176.08079067 -59.80022917 174.2181034 -51.30493164 172.35449219 C-49.81395735 172.02781549 -48.32297282 171.70118553 -46.83197784 171.37460327 C-43.22120055 170.58360666 -39.61056147 169.79198127 -36 169 C-36.00959496 168.28807243 -36.01918991 167.57614487 -36.02907562 166.84264374 C-36.2578545 149.45394526 -36.39676915 132.06679859 -36.43784332 114.67664337 C-36.45983514 106.26633849 -36.51131973 97.85821547 -36.63427734 89.44873047 C-36.7414768 82.11172829 -36.79126099 74.77686548 -36.77444887 67.4390626 C-36.7675025 63.55891752 -36.78769742 59.68353104 -36.87687683 55.80430603 C-37.45916618 29.11896019 -37.45916618 29.11896019 -29.53295135 20.37154388 C-26.21997172 17.25256613 -22.73821921 14.58426064 -19 12 C-17.59000584 10.94218366 -16.18397503 9.87905969 -14.78234863 8.81018066 C-11.60018399 6.40417872 -8.34205648 4.17817947 -5 2 C-2 0 -2 0 0 0 Z " fill="#020202" transform="translate(292,64)"/>
<path d="M0 0 C-1.5703672 10.59997858 -3.29006094 20.89314396 -7 31 C-7.41958984 32.82144531 -7.41958984 32.82144531 -7.84765625 34.6796875 C-10.35603202 38.54923269 -11.06088396 38.66876167 -15.37109375 39.71484375 C-17.72130965 40.15166977 -20.07753758 40.55683072 -22.4375 40.9375 C-24.40224693 41.29761501 -26.36697263 41.6578775 -28.3306427 42.02381897 C-29.7201045 42.28176939 -31.11025536 42.53603186 -32.50102234 42.78684998 C-39.85987318 44.12086903 -47.14150228 45.76440897 -54.43240356 47.42474365 C-68.81160651 50.69423912 -83.22905044 53.74994413 -97.6862793 56.65405273 C-104.71973126 58.07378118 -111.69089059 59.61170813 -118.62695312 61.45581055 C-121 62 -121 62 -124 62 C-122.35240895 48.83372415 -120.527838 34.291757 -113 23 C-110.99267578 22.25146484 -110.99267578 22.25146484 -108.4453125 21.7109375 C-107.45926025 21.49606689 -106.47320801 21.28119629 -105.45727539 21.05981445 C-104.35762451 20.83382568 -103.25797363 20.60783691 -102.125 20.375 C-100.97056396 20.1277417 -99.81612793 19.8804834 -98.62670898 19.62573242 C-94.42137159 18.73249904 -90.21163156 17.86296642 -86 17 C-85.13284363 16.8221698 -84.26568726 16.6443396 -83.37225342 16.46112061 C-80.52826102 15.8783214 -77.68409334 15.29638642 -74.83984375 14.71484375 C-73.87139526 14.51683167 -72.90294678 14.31881958 -71.90515137 14.11480713 C-67.04956998 13.12314036 -62.19305633 12.1365244 -57.33447266 11.15966797 C-49.04891173 9.48817194 -40.81116933 7.77412537 -32.62719727 5.65014648 C-28.10168933 4.53022941 -23.52305008 3.70752543 -18.9375 2.875 C-17.11293598 2.54094286 -15.28870019 2.2050865 -13.46484375 1.8671875 C-12.677146 1.72394043 -11.88944824 1.58069336 -11.07788086 1.43310547 C-3.79750059 -0.0843889 -3.79750059 -0.0843889 0 0 Z " fill="#030303" transform="translate(451,337)"/>
</svg>
